HIERARCHY
ROOT Hips
{
  OFFSET 196.326 95.9168 97.7182
  CHANNELS 6 Xposition Yposition Zposition Zrotation Xrotation Yrotation
  JOINT LeftUpLeg
  {
    OFFSET 8.64259 1.95398 -2.38835
    CHANNELS 3 Zrotation Xrotation Yrotation
    JOINT LeftLeg
    {
      OFFSET 43.7702 0 0
      CHANNELS 3 Zrotation Xrotation Yrotation
      JOINT LeftFoot
      {
        OFFSET 40.6238 0 0
        CHANNELS 3 Zrotation Xrotation Yrotation
        JOINT LeftToeBase
        {
          OFFSET 12.7242 0 0
          CHANNELS 3 Zrotation Xrotation Yrotation
          End Site
          {
            OFFSET 0 0 0
          }
        }
      }
    }
  }
  JOINT RightUpLeg
  {
    OFFSET -8.2249 1.95398 -2.59336
    CHANNELS 3 Zrotation Xrotation Yrotation
    JOINT RightLeg
    {
      OFFSET 43.5653 0 0
      CHANNELS 3 Zrotation Xrotation Yrotation
      JOINT RightFoot
      {
        OFFSET 40.6238 0 0
        CHANNELS 3 Zrotation Xrotation Yrotation
        JOINT RightToeBase
        {
          OFFSET 12.7242 0 0
          CHANNELS 3 Zrotation Xrotation Yrotation
          End Site
          {
            OFFSET 0 0 0
          }
        }
      }
    }
  }
  JOINT Spine
  {
    OFFSET 0.165834 0.87714 6.61349
    CHANNELS 3 Zrotation Xrotation Yrotation
    JOINT Spine1
    {
      OFFSET 7.38963 1.71661e-005 0
      CHANNELS 3 Zrotation Xrotation Yrotation
      JOINT Spine2
      {
        OFFSET 11.9445 1.14441e-005 0
        CHANNELS 3 Zrotation Xrotation Yrotation
        JOINT Spine3
        {
          OFFSET 14.7254 4.19617e-005 0
          CHANNELS 3 Zrotation Xrotation Yrotation
          JOINT Spine4
          {
            OFFSET 10.9679 0 0
            CHANNELS 3 Zrotation Xrotation Yrotation
            JOINT RightShoulder
            {
              OFFSET 2.46616 -1.6653 3.69651
              CHANNELS 3 Zrotation Xrotation Yrotation
              JOINT RightArm
              {
                OFFSET 13.0012 0 0
                CHANNELS 3 Zrotation Xrotation Yrotation
                JOINT RightForeArm
                {
                  OFFSET 28.7848 1.52588e-005 0
                  CHANNELS 3 Zrotation Xrotation Yrotation
                  JOINT RightHand
                  {
                    OFFSET 26.5688 1.52588e-005 0
                    CHANNELS 3 Zrotation Xrotation Yrotation
                    End Site
                    {
                      OFFSET 0 0 0
                    }
                  }
                }
              }
            }
            JOINT LeftShoulder
            {
              OFFSET 2.38034 -1.29275 -3.75231
              CHANNELS 3 Zrotation Xrotation Yrotation
              JOINT LeftArm
              {
                OFFSET 16.3182 6.10351e-005 0
                CHANNELS 3 Zrotation Xrotation Yrotation
                JOINT LeftForeArm
                {
                  OFFSET 27.0901 0 0
                  CHANNELS 3 Zrotation Xrotation Yrotation
                  JOINT LeftHand
                  {
                    OFFSET 24.5451 1.52588e-005 0
                    CHANNELS 3 Zrotation Xrotation Yrotation
                    End Site
                    {
                      OFFSET 0 0 0
                    }
                  }
                }
              }
            }
            JOINT Neck
            {
              OFFSET 5.0226 -0.0266342 0
              CHANNELS 3 Zrotation Xrotation Yrotation
              JOINT Head
              {
                OFFSET 6.69363 2.86102e-005 0
                CHANNELS 3 Zrotation Xrotation Yrotation
                End Site
                {
                  OFFSET 0 0 0
                }
              }
            }
          }
        }
      }
    }
  }
}
MOTION
Frames:	6
Frame Time:	0.0416667
-162.252 96.3303 -171.972 84.5391 -34.4844 88.3343 -171.611 10.3447 90.6865 -11.7108 9.25867 -1.61114 62.5368 7.1993 14.9717 36.9872 8.00718 -30.4561 179.383 9.85284 92.5505 -11.8626 9.14497 0.201345 65.3103 -2.15971 -1.17123 29.359 -1.03068 18.1867 -0.0749116 5.95817 -90.1906 14.9571 -0.242868 -0.347311 3.28608 -0.257923 -0.336285 -19.2488 -0.127271 -0.404244 0.76389 -0.127274 -0.404251 84.3292 -50.8787 -109.147 24.467 -12.1946 11.6418 6.5273 -2.06834 -95.2912 0.144265 0.192126 2.21948 -101.429 -43.0799 59.0765 -28.9502 3.77905 13.4775 -17.7105 -6.68084 -91.6121 16.1681 0.726091 0.630034 11.605 -0.646186 0.621244 -8.58511 -0.786311 0.412441 
-162.154 96.3037 -172.099 83.9831 -35.9316 88.419 -171.4 10.8709 91.0073 -12.2159 7.18948 -1.55123 63.3796 7.06871 13.8975 36.6026 7.76859 -30.119 179.843 10.0875 93.0251 -11.3134 8.31276 -0.0147557 65.1877 -2.32758 -1.26897 29.0041 -1.10504 18.1188 0.108604 5.91266 -90.2347 15.0485 0.0979551 -0.486775 3.37751 0.0764585 -0.490624 -19.1571 0.239725 -0.434831 0.855565 0.23974 -0.434833 84.1182 -51.04 -109.409 24.3568 -12.9646 11.5274 10.131 -1.15663 -95.8822 -5.63119 -0.194224 0.822109 -101.668 -43.1155 58.7248 -28.8658 3.9414 13.6309 -18.9936 -6.84259 -91.4245 14.0643 0.356566 -1.2581 11.8925 0.0422861 -0.53294 -10.6896 0.110099 1.7644 
-161.808 96.3376 -172.006 84.2796 -37.7163 89.6383 -170.766 10.7838 92.1579 -13.1737 6.03836 -1.58106 64.305 7.10048 13.6583 36.5191 7.7213 -29.8364 -179.565 9.03901 94.0805 -9.95579 7.27741 -0.0841491 64.3783 -2.37448 -1.30799 28.3275 -1.12194 16.1568 0.324252 5.93192 -90.349 15.0112 0.468059 -0.771553 3.34006 0.433638 -0.791407 -19.1945 0.678283 -0.595223 0.818097 0.678272 -0.595228 84.2098 -51.0822 -109.259 25.0364 -15.6337 11.4182 21.1766 2.74076 -97.5282 -12.5639 -0.713011 1.60875 -101.645 -43.0437 58.7284 -29.2257 4.25272 13.5978 -20.5988 -6.93131 -91.6836 15.7516 0.434706 -1.08037 11.444 0.2896 -0.713823 -11.2739 0.377676 1.89783 
-161.29 96.3664 -171.861 84.8596 -40.1103 91.5297 -169.933 10.5349 93.811 -14.3768 4.77854 -1.60345 65.4556 7.30087 13.9621 36.767 7.85449 -30.8629 -178.668 7.18896 95.6117 -7.4263 5.79697 -0.153819 63.2277 -2.48029 -1.39666 28.7605 -1.04158 16.3049 0.620904 5.99187 -90.5354 14.8947 0.962846 -1.2184 3.22348 0.908291 -1.25959 -19.3119 1.28449 -0.872714 0.700768 1.28448 -0.872716 84.4906 -50.9874 -108.872 25.0448 -15.3656 11.3677 20.72 2.47631 -97.8067 -11.9527 -0.672254 1.61678 -101.639 -43.1604 58.7903 -29.238 4.39329 13.3711 -21.2195 -6.88912 -91.8132 16.1336 0.441092 -1.10984 11.4263 0.342428 -0.558507 -11.68 0.387026 1.84793 
-160.677 96.4066 -171.715 85.8294 -42.5889 94.1709 -168.957 10.1765 95.9704 -15.6379 3.76929 -1.64076 66.6313 7.17413 13.5822 37.3458 8.26137 -29.7762 -177.731 6.13438 97.4593 -7.05344 4.38866 -0.112114 63.2643 -2.46894 -1.39538 28.0571 -1.1912 16.3559 0.920727 6.05341 -90.7524 14.7769 1.44962 -1.7234 3.10552 1.37235 -1.78551 -19.431 1.90048 -1.20808 0.581665 1.90051 -1.20807 84.5016 -50.6485 -108.965 25.5556 -15.0776 11.548 19.9563 2.18462 -97.8099 -11.7581 -0.670434 1.76598 -101.585 -43.0684 58.8321 -29.1454 3.89057 13.9213 -19.4745 -6.60674 -92.0569 14.3277 0.4367 -0.779011 11.3915 0.317436 -0.622731 -11.848 0.371587 1.92705 
-160.031 96.4273 -171.541 87.1346 -44.8352 97.0068 -168.124 9.71547 97.965 -17.1383 2.0905 -1.52685 68.2408 7.18267 13.1412 36.9878 8.02748 -29.8016 -176.875 5.12319 99.2408 -7.05477 3.38783 -0.0252306 63.3752 -2.419 -1.36597 27.8745 -1.26738 16.8776 1.19301 6.13511 -90.9683 14.6201 1.88361 -2.2156 2.94844 1.78428 -2.29631 -19.5892 2.46229 -1.54712 0.42343 2.4623 -1.54712 84.5212 -50.7041 -108.918 25.4609 -15.2123 11.4351 19.93 2.29629 -97.33 -11.9743 -0.598738 0.876604 -101.692 -43.0693 58.6678 -29.0884 4.14218 13.7133 -20.0359 -6.73629 -91.9276 15.4844 0.527597 -0.436326 11.2078 0.352069 -0.487652 -12.0186 0.374985 1.80812 
